Coordinates
version=1
nRows=27
nColumns=19
inDegrees=yes

Units are S.I. units (second, meters, Newtons, ...)
If the header above contains a line with 'inDegrees', this indicates whether rotational values are in degrees (yes) or radians (no).

endheader
time	pelvis_tilt	pelvis_list	pelvis_rotation	pelvis_tx	pelvis_ty	pelvis_tz	hip_flexion_r	hip_adduction_r	hip_rotation_r	knee_angle_r	knee_angle_r_beta	ankle_angle_r	hip_flexion_l	hip_adduction_l	hip_rotation_l	knee_angle_l	knee_angle_l_beta	ankle_angle_l
     15.61333333	      2.40766357	    -10.75037607	    -11.20637326	      2.24192335	      1.00473788	      1.01729790	     21.74120737	     16.60730267	     -5.10268293	     36.12212127	      0.63044995	      7.03290728	     -1.33240395	    -11.12809685	    -12.75859314	    108.97589843	      1.90198823	    -13.20245379
     15.62000000	      1.79484076	    -11.20379614	    -11.84690715	      2.23857853	      0.99879695	      1.01809735	     21.79663467	     17.32180735	     -4.72444575	     38.53168748	      0.67250481	      9.71440681	      1.90261779	    -12.66113707	    -12.14659106	    112.38447664	      1.96147915	    -12.77347906
     15.62666667	      1.19167055	    -11.64108223	    -12.43301625	      2.23509880	      0.99357938	      1.01887664	     21.63672959	     18.02031415	     -4.22712497	     40.61906316	      0.70893639	     12.30181388	      5.28162158	    -14.25378803	    -11.31447018	    115.44618336	      2.01491601	    -12.39959723
     15.63333333	      0.53591851	    -11.77908373	    -12.91356150	      2.23159226	      0.98917108	      1.01947535	     21.41632605	     18.37070402	     -3.65138181	     42.46348713	      0.74112766	     14.82910913	      8.98283367	    -15.48183268	    -10.23525072	    118.07203300	      2.06074573	    -12.11306624
     15.64000000	      1.06101727	    -11.80624325	    -13.41090802	      2.22926487	      0.98778417	      1.01999294	     19.43622814	     18.37229268	     -2.56603552	     43.68116826	      0.76238021	     17.26195023	     11.10185496	    -16.26722741	     -9.62425961	    119.64123500	      2.08813347	    -11.83884330
     15.64666667	      2.76197981	    -11.39154770	    -14.29562107	      2.22859852	      0.98992818	      1.02085089	     15.67297132	     17.69148993	     -0.51073915	     44.27494989	      0.77274365	     19.47188703	     11.35063738	    -16.26972551	    -10.14992170	    119.87686087	      2.09224592	    -11.59185837
     15.65333333	      4.47951522	    -11.01672013	    -14.64682313	      2.22761713	      0.99272509	      1.02143427	     11.76564123	     16.77567995	      1.11939820	     44.28832817	      0.77297715	     21.37653373	     11.87479555	    -16.26480356	    -10.14434882	    119.91713486	      2.09294883	    -11.21520672
     15.66000000	      5.17951351	    -10.23750616	    -14.74384834	      2.22617830	      0.99485605	      1.02199559	      9.05283194	     15.56087942	      2.38389425	     44.03229538	      0.76850853	     22.98222266	     13.96463439	    -15.99809618	     -9.68170523	    119.93142590	      2.09319826	    -10.79708309
     15.66666667	      5.84169806	     -9.73400628	    -14.25116670	      2.22416986	      0.99707039	      1.02213241	      6.26297973	     14.55373368	      3.08608584	     43.29878856	      0.75570642	     24.03543729	     16.37316964	    -15.90341306	     -8.55223601	    119.93107088	      2.09319206	    -10.13046470
     15.67333333	      5.66355172	     -9.17817296	    -13.56114124	      2.22190580	      0.99844409	      1.02229571	      4.34712955	     13.72747861	      3.49127207	     42.33727127	      0.73892478	     24.78131857	     19.92283172	    -15.83317030	     -7.06910424	    119.92256099	      2.09304354	     -9.38909482
     15.68000000	      4.84933307	     -8.77061645	    -12.46674709	      2.21960729	      0.99904942	      1.02218858	      3.02408805	     13.22530823	      3.40974006	     41.09958402	      0.71732306	     25.08609592	     24.39568792	    -15.74627007	     -5.02043350	    119.89695082	      2.09259655	     -8.61117635
     15.68666667	      3.08674493	     -8.40957529	    -11.14571152	      2.21752427	      0.99844286	      1.02180045	      2.72460432	     12.97907909	      2.91010988	     39.82309024	      0.69504404	     24.98604102	     30.05946015	    -15.42968220	     -2.58574524	    119.81697568	      2.09120073	     -7.93337857
     15.69333333	      2.19706390	     -8.36207477	     -9.65431803	      2.21630066	      0.99926875	      1.02149723	      1.09686615	     12.91357493	      2.41901358	     37.91542250	      0.66174896	     24.28393988	     34.34878306	    -15.03934964	     -0.36839383	    119.21746924	      2.08073736	     -7.10130439
     15.70000000	      1.73295161	     -7.47080428	     -8.60073627	      2.21688892	      1.00241081	      1.02189046	     -1.16755559	     11.90297019	      2.34911957	     35.64737590	      0.62216408	     23.07172372	     37.23740300	    -13.81782522	      0.36898810	    117.51618016	      2.05104427	     -6.31248668
     15.70666667	      1.68077415	     -6.48534073	     -7.27816149	      2.21830914	      1.00655058	      1.02215379	     -4.04277430	     10.76953863	      1.82026221	     32.97051709	      0.57544408	     21.16411911	     39.30825394	    -12.28281815	      0.89267751	    115.36175969	      2.01344254	     -5.55415683
     15.71333333	      2.13595702	     -5.33373499	     -6.22683695	      2.22036893	      1.01174373	      1.02301085	     -7.59954453	      9.48953045	      1.43833569	     30.01784455	      0.52391022	     18.60227859	     40.26475407	    -10.84467110	      0.71564744	    112.77552401	      1.96830421	     -4.64597336
     15.72000000	      1.75724479	     -4.19000952	     -4.92221105	      2.22262454	      1.01586985	      1.02339615	    -10.10504832	      8.39902552	      0.27537232	     27.26085029	      0.47579159	     15.44029799	     42.12646916	     -9.16087878	      0.82000502	    110.11416241	      1.92185469	     -3.97887802
     15.72666667	      1.80847433	     -2.96220454	     -3.85567343	      2.22532851	      1.02075872	      1.02428533	    -13.09366066	      7.25331463	     -0.93525048	     24.42970703	      0.42637882	     11.64391469	     43.07876163	     -7.66568940	      0.41337547	    107.12131559	      1.86961966	     -3.25881473
     15.73333333	      1.31737097	     -1.83682818	     -2.64909327	      2.22822733	      1.02493955	      1.02499503	    -15.31680685	      6.36665908	     -2.74411645	     21.89788789	      0.38219024	      7.42419454	     44.52293542	     -6.16413725	      0.14916745	    104.02260461	      1.81553695	     -2.76714830
     15.74000000	      0.91062191	     -0.76435088	     -1.58128076	      2.23120851	      1.02931892	      1.02582887	    -17.45706622	      5.57917217	     -4.74387171	     19.64517666	      0.34287301	      2.83893933	     45.61916260	     -4.82395437	     -0.30206576	    100.72074056	      1.75790855	     -2.37121985
     15.74666667	      0.32728865	      0.16778252	     -0.53796765	      2.23419498	      1.03351276	      1.02661040	    -19.16149722	      4.99677590	     -7.00854253	     17.81924037	      0.31100441	     -1.90338894	     46.74158489	     -3.62679796	     -0.75694656	     97.27042743	      1.69768922	     -2.14989513
     15.75333333	     -0.31010010	      0.95462886	      0.43460655	      2.23708763	      1.03767650	      1.02730665	    -20.53278869	      4.57437358	     -9.38342184	     16.48099953	      0.28764771	     -6.60207033	     47.74699147	     -2.58458591	     -1.23558074	     93.66576526	      1.63477600	     -2.08229403
     15.76000000	     -0.95235537	      1.61955602	      1.29829793	      2.23983916	      1.04185920	      1.02785865	    -21.60907892	      4.24042484	    -11.71341159	     15.67786252	      0.27363032	    -11.02376209	     48.57482532	     -1.68896671	     -1.76908376	     89.89857781	      1.56902618	     -2.15361449
     15.76666667	     -1.67905720	      2.12708075	      2.12702832	      2.24231410	      1.04587302	      1.02803748	    -22.26281183	      3.99800333	    -13.98748970	     15.52891575	      0.27103071	    -14.94687872	     49.35552281	     -0.85239287	     -2.22970947	     85.99849347	      1.50095686	     -2.36668140
     15.77333333	     -2.17140816	      2.61446113	      2.74130583	      2.24454015	      1.05012357	      1.02804152	    -22.90471913	      3.66186825	    -15.87151601	     15.92095150	      0.27787302	    -18.27474423	     49.66762041	     -0.14184076	     -2.86177882	     81.91541621	      1.42969372	     -2.63222763
     15.78000000	     -2.83134366	      2.97305840	      3.37340980	      2.24640069	      1.05394866	      1.02740724	    -23.04736978	      3.34168219	    -17.53142804	     17.02338707	      0.29711415	    -20.80721222	     50.04495999	      0.63641764	     -3.33506821	     77.71972348	      1.35646507	     -3.00695106
     15.78666667	     -3.18745920	      3.34788492	      3.78957557	      2.24792005	      1.05791500	      1.02652112	    -23.30034454	      2.88557991	    -18.61895208	     18.61645250	      0.32491839	    -22.64717739	     49.89792736	      1.34145172	     -3.94663930	     73.37412620	      1.28062009	     -3.36701680
